<svg width="92" height="92" viewBox="0 0 92 92" fill="none" xmlns="http://www.w3.org/2000/svg">
<path d="M82.888 63.5508C83.2345 63.6534 83.5558 63.608 83.8517 63.4147C84.15 63.2223 84.3858 62.9212 84.5592 62.5113C84.6833 62.2178 84.7441 61.9442 84.7416 61.6905C84.7414 61.4378 84.6861 61.2181 84.5756 61.0313C84.4665 60.8479 84.3106 60.7133 84.1079 60.6276C83.9379 60.5557 83.7744 60.5332 83.6175 60.5602C83.4596 60.5895 83.3111 60.6516 83.1721 60.7466C83.0344 60.8449 82.9056 60.9579 82.7857 61.0856C82.6681 61.2144 82.5622 61.3412 82.4682 61.4662L81.991 62.0881C81.8385 62.2927 81.6638 62.4948 81.4669 62.6943C81.2699 62.8938 81.0501 63.063 80.8073 63.202C80.5646 63.341 80.3013 63.4246 80.0175 63.4528C79.7327 63.4834 79.4297 63.4307 79.1082 63.2947C78.703 63.1233 78.3874 62.8663 78.1617 62.5237C77.9349 62.1834 77.8144 61.7769 77.8002 61.3041C77.7851 60.8336 77.8957 60.3189 78.1321 59.7599C78.3587 59.2242 78.6398 58.7966 78.9753 58.4773C79.3108 58.1579 79.6814 57.9536 80.0871 57.8643C80.4951 57.776 80.9195 57.8114 81.3603 57.9703L80.9022 59.0534C80.6348 58.965 80.3839 58.9577 80.1494 59.0315C79.9164 59.1087 79.7091 59.2448 79.5278 59.44C79.3477 59.6384 79.1991 59.8762 79.0819 60.1534C78.9528 60.4585 78.8858 60.75 78.8808 61.028C78.8772 61.3093 78.9324 61.555 79.0467 61.7654C79.1632 61.9767 79.338 62.1316 79.5709 62.2301C79.7828 62.3197 79.982 62.3326 80.1683 62.2686C80.3536 62.207 80.5339 62.0924 80.7091 61.9248C80.8833 61.7596 81.0584 61.5632 81.2343 61.3356L81.8225 60.5876C82.2209 60.0807 82.6424 59.7235 83.087 59.5162C83.5307 59.3112 84.0018 59.3141 84.5002 59.5249C84.9125 59.6993 85.225 59.9633 85.4379 60.3169C85.6508 60.6706 85.7614 61.0743 85.7699 61.5282C85.7807 61.9831 85.6846 62.4505 85.4817 62.9303C85.2768 63.4147 85.011 63.8062 84.6843 64.1046C84.3567 64.4053 83.9985 64.5998 83.6097 64.688C83.2233 64.7771 82.8359 64.7451 82.4477 64.5919L82.888 63.5508Z" fill="white"/>
<path d="M76.5675 63.3588L77.2545 62.3215L82.1877 68.9422L81.4399 70.0713L73.4191 68.1122L74.1062 67.0749L80.6195 68.7544L80.653 68.7038L76.5675 63.3588ZM78.9886 65.2127L76.7599 68.5777L75.9376 68.0331L78.1664 64.6681L78.9886 65.2127Z" fill="white"/>
<path d="M72.8871 68.6033L78.5184 73.9552L77.7109 74.8048L72.811 70.148L70.3859 72.6997L69.6545 72.0046L72.8871 68.6033Z" fill="white"/>
<path d="M69.1644 72.4157L73.8934 78.5794L70.029 81.5443L69.4148 80.7437L72.3492 78.4924L70.9083 76.6144L68.1756 78.711L67.5637 77.9135L70.2964 75.8168L68.8486 73.9298L65.8782 76.2088L65.2639 75.4083L69.1644 72.4157Z" fill="white"/>
<path d="M56.2965 85.5161C56.4421 85.8468 56.6843 86.0627 57.0231 86.1636C57.3627 86.2669 57.7449 86.2523 58.1698 86.1197C58.4739 86.0248 58.722 85.8944 58.914 85.7285C59.1067 85.565 59.2386 85.3808 59.3097 85.1758C59.3792 84.974 59.3812 84.7681 59.3156 84.558C59.2606 84.3818 59.1721 84.2425 59.0501 84.1402C58.9257 84.0386 58.7824 83.9655 58.62 83.9207C58.4561 83.8792 58.2866 83.8539 58.1116 83.845C57.9373 83.8384 57.7722 83.8396 57.616 83.8486L56.833 83.8863C56.5784 83.9022 56.3113 83.8995 56.0317 83.8781C55.7522 83.8567 55.4809 83.7983 55.218 83.7028C54.9551 83.6074 54.7212 83.4605 54.5162 83.2622C54.3089 83.0646 54.1532 82.7993 54.0493 82.4661C53.9182 82.0461 53.9104 81.6392 54.026 81.2455C54.1391 80.8526 54.3715 80.4979 54.7232 80.1815C55.0724 79.8659 55.5367 79.6177 56.1161 79.4369C56.6713 79.2636 57.1792 79.2018 57.6398 79.2515C58.1003 79.3011 58.4958 79.4519 58.826 79.7038C59.1571 79.9582 59.4044 80.3049 59.5679 80.744L58.4453 81.0943C58.34 80.8331 58.1834 80.6369 57.9755 80.5057C57.766 80.3777 57.5282 80.3075 57.2621 80.2952C56.9943 80.2861 56.7168 80.3263 56.4295 80.416C56.1133 80.5146 55.8475 80.6519 55.6321 80.8277C55.4151 81.0067 55.2633 81.2077 55.1766 81.4308C55.0907 81.6563 55.0854 81.8898 55.1607 82.1312C55.2293 82.3509 55.3482 82.5112 55.5174 82.612C55.6842 82.7136 55.8881 82.7771 56.1292 82.8026C56.3679 82.8287 56.6309 82.8354 56.9183 82.8225L57.8692 82.7881C58.5135 82.7645 59.0585 82.8554 59.5041 83.0607C59.9472 83.2668 60.2494 83.6282 60.4106 84.1448C60.544 84.5721 60.5445 84.9812 60.4122 85.3722C60.2799 85.7632 60.0432 86.1086 59.7023 86.4084C59.3622 86.7106 58.9434 86.9392 58.4461 87.0944C57.944 87.2511 57.4735 87.3013 57.0347 87.2448C56.5934 87.1891 56.2135 87.0414 55.895 86.8017C55.5772 86.5645 55.3514 86.2482 55.2174 85.8529L56.2965 85.5161Z" fill="white"/>
<path d="M52.3886 80.5491L53.6245 80.4055L51.7438 88.445L50.3986 88.6012L46.7252 81.2069L47.9611 81.0633L50.8763 87.1251L50.9366 87.1181L52.3886 80.5491ZM52.5323 83.5951L48.5231 84.0608L48.4094 83.0811L52.4186 82.6154L52.5323 83.5951Z" fill="white"/>
<path d="M45.8666 81.1129L45.3873 88.8669L44.2174 88.7946L44.6344 82.0477L41.1209 81.8305L41.1831 80.8234L45.8666 81.1129Z" fill="white"/>
<path d="M40.5463 80.7173L38.8296 88.2941L34.0793 87.2177L34.3023 86.2336L37.9094 87.0509L38.4325 84.7424L35.0732 83.9813L35.2954 83.0009L38.6546 83.762L39.1802 81.4424L35.5287 80.615L35.7517 79.6309L40.5463 80.7173Z" fill="white"/>
<path d="M22.2655 79.2378C22.1045 79.5613 22.0936 79.8855 22.2329 80.2105C22.3707 80.5375 22.6265 80.8219 23.0003 81.0636C23.2679 81.2366 23.5268 81.3438 23.7771 81.3852C24.026 81.4287 24.252 81.4122 24.4551 81.3357C24.6546 81.2599 24.8141 81.1297 24.9336 80.9449C25.0338 80.7899 25.0843 80.6328 25.0848 80.4735C25.0833 80.3129 25.0478 80.1559 24.9783 80.0026C24.9053 79.85 24.8163 79.7036 24.7112 79.5634C24.6047 79.4253 24.4981 79.2991 24.3913 79.1848L23.8613 78.6073C23.6861 78.4217 23.5173 78.2147 23.3549 77.9862C23.1925 77.7577 23.0638 77.5119 22.9689 77.2487C22.8741 76.9856 22.8373 76.7119 22.8585 76.4275C22.8777 76.1417 22.982 75.8523 23.1715 75.5592C23.4104 75.1897 23.7182 74.9234 24.0947 74.7603C24.4691 74.5958 24.8903 74.5475 25.3584 74.6153C25.8244 74.6817 26.3123 74.8797 26.8219 75.2093C27.3104 75.5251 27.6828 75.8759 27.9394 76.2616C28.1959 76.6473 28.333 77.0477 28.3508 77.4627C28.3671 77.8799 28.2589 78.2917 28.0261 78.6983L27.0386 78.0598C27.1719 77.8117 27.2225 77.5659 27.1903 77.3222C27.1547 77.0793 27.0564 76.8516 26.8956 76.6392C26.7313 76.4276 26.5228 76.2401 26.2701 76.0767C25.9919 75.8968 25.7164 75.7803 25.4434 75.7273C25.167 75.6751 24.9154 75.687 24.6885 75.7632C24.4602 75.8414 24.2774 75.9867 24.1401 76.1991C24.0151 76.3923 23.968 76.5862 23.9988 76.7808C24.0275 76.974 24.1091 77.1714 24.2438 77.3729C24.3764 77.5731 24.5396 77.7795 24.7334 77.9921L25.3683 78.7008C25.7987 79.1809 26.0776 79.6579 26.2048 80.1317C26.33 80.6041 26.2457 81.0676 25.9518 81.522C25.7087 81.8979 25.3947 82.1601 25.0095 82.3086C24.6244 82.4571 24.2076 82.4962 23.7591 82.426C23.3092 82.358 22.8655 82.1825 22.428 81.8996C21.9863 81.614 21.6467 81.2845 21.4093 80.9112C21.1698 80.5364 21.0402 80.15 21.0206 79.7518C20.9996 79.3558 21.0982 78.9798 21.3163 78.624L22.2655 79.2378Z" fill="white"/>
<path d="M23.575 73.0619L24.48 73.9158L17.1151 77.6479L16.1301 76.7186L19.428 69.1493L20.333 70.0031L17.5675 76.1347L17.6117 76.1764L23.575 73.0619ZM21.3354 75.1316L18.3997 72.3617L19.0766 71.6444L22.0123 74.4142L21.3354 75.1316Z" fill="white"/>
<path d="M19.0474 68.5472L12.8154 73.1858L12.1155 72.2455L17.5381 68.2094L15.4363 65.3855L16.2457 64.7831L19.0474 68.5472Z" fill="white"/>
<path d="M15.9092 64.212L9.01192 67.7872L6.77044 63.463L7.66628 62.9986L9.36834 66.2822L11.4699 65.1929L9.88476 62.1349L10.7772 61.6723L12.3623 64.7303L14.4739 63.6357L12.7509 60.3117L13.6468 59.8473L15.9092 64.212Z" fill="white"/>
<path d="M5.25796 49.353C4.90688 49.4387 4.65211 49.6395 4.49365 49.9555C4.33268 50.2718 4.28042 50.6507 4.33687 51.0922C4.37728 51.4083 4.4624 51.6753 4.59225 51.8933C4.71958 52.1115 4.87797 52.2736 5.06741 52.3794C5.25403 52.483 5.45645 52.5208 5.67469 52.4929C5.85781 52.4695 6.0104 52.4067 6.13244 52.3044C6.25417 52.1996 6.3512 52.0712 6.42355 51.9192C6.49307 51.765 6.5475 51.6025 6.58686 51.4317C6.62371 51.2613 6.65133 51.0984 6.66971 50.9431L6.76916 50.1655C6.79794 49.912 6.84723 49.6495 6.91705 49.378C6.98686 49.1064 7.0917 48.8496 7.23154 48.6073C7.37139 48.3651 7.55683 48.1604 7.78785 47.9932C8.01855 47.8234 8.30699 47.7165 8.65316 47.6722C9.08964 47.6164 9.49163 47.6797 9.85914 47.8622C10.2263 48.0422 10.535 48.3329 10.7852 48.7343C11.0351 49.1332 11.1985 49.6337 11.2754 50.2357C11.3492 50.8127 11.3215 51.3236 11.1922 51.7684C11.063 52.2133 10.8455 52.5763 10.5399 52.8576C10.2317 53.1392 9.84716 53.3222 9.38629 53.4066L9.23717 52.2402C9.51272 52.182 9.73321 52.062 9.89864 51.8803C10.0612 51.6963 10.1718 51.4744 10.2304 51.2145C10.2861 50.9524 10.2949 50.6721 10.2567 50.3736C10.2147 50.045 10.1259 49.7593 9.99035 49.5166C9.85196 49.2717 9.68049 49.0871 9.47594 48.9629C9.26888 48.8389 9.03992 48.793 8.78908 48.825C8.5608 48.8542 8.38226 48.9433 8.25344 49.0924C8.12431 49.2389 8.02619 49.4287 7.95909 49.6616C7.89166 49.892 7.83922 50.1498 7.80175 50.4351L7.66983 51.3774C7.58065 52.016 7.3961 52.5367 7.11618 52.9397C6.83594 53.3401 6.42741 53.5746 5.89059 53.6432C5.44658 53.7 5.04363 53.6291 4.68172 53.4306C4.31981 53.2321 4.021 52.9389 3.78528 52.5509C3.54706 52.1633 3.39491 51.7111 3.32885 51.1943C3.26214 50.6726 3.29485 50.2005 3.42698 49.7783C3.55879 49.3535 3.77048 49.0052 4.06206 48.7334C4.35114 48.4619 4.70198 48.2946 5.1146 48.2317L5.25796 49.353Z" fill="white"/>
<path d="M10.8108 46.2333L10.7389 47.4755L3.14476 44.235L3.22309 42.8831L11.1406 40.5414L11.0686 41.7836L4.59456 43.6085L4.59105 43.6691L10.8108 46.2333ZM7.7857 45.8491L8.01917 41.8197L9.0038 41.8767L8.77033 45.9061L7.7857 45.8491Z" fill="white"/>
<path d="M11.3508 39.8405L3.79413 38.0373L4.0662 36.8971L10.6414 38.4661L11.4584 35.042L12.4399 35.2762L11.3508 39.8405Z" fill="white"/>
<path d="M12.6566 34.6465L5.49025 31.6469L7.37086 27.1539L8.30165 27.5435L6.87361 30.9553L9.05712 31.8692L10.387 28.6919L11.3143 29.0801L9.98441 32.2573L12.1784 33.1757L13.624 29.722L14.5548 30.1116L12.6566 34.6465Z" fill="white"/>
<path d="M17.1662 16.9788C16.8749 16.7649 16.5573 16.6989 16.2134 16.7807C15.8676 16.8607 15.5438 17.0643 15.2419 17.3913C15.0257 17.6254 14.8759 17.8623 14.7925 18.1019C14.7071 18.3397 14.6848 18.5652 14.7255 18.7783C14.7661 18.9879 14.8673 19.1673 15.0289 19.3165C15.1646 19.4417 15.3108 19.5182 15.4676 19.546C15.6262 19.5718 15.7869 19.5636 15.9498 19.5213C16.1127 19.4754 16.2721 19.4127 16.4282 19.3331C16.5824 19.2517 16.725 19.1682 16.8557 19.0824L17.5153 18.6587C17.728 18.5178 17.9608 18.3868 18.2136 18.2657C18.4665 18.1446 18.7307 18.0598 19.0061 18.0112C19.2816 17.9626 19.5576 17.973 19.8342 18.0425C20.1125 18.1101 20.3799 18.2623 20.6363 18.499C20.9596 18.7975 21.1695 19.1461 21.266 19.5449C21.3642 19.9419 21.34 20.3652 21.1933 20.8149C21.0484 21.2627 20.7701 21.7097 20.3584 22.1556C19.9639 22.583 19.5547 22.8902 19.1309 23.0772C18.707 23.2641 18.2891 23.331 17.8772 23.2776C17.4634 23.2226 17.076 23.0457 16.7151 22.747L17.5127 21.8829C17.7344 22.0565 17.968 22.1483 18.2136 22.1582C18.459 22.1645 18.7001 22.1065 18.9368 21.9843C19.1734 21.8585 19.3937 21.6851 19.5979 21.4639C19.8226 21.2205 19.9843 20.9688 20.0831 20.709C20.1817 20.4455 20.2129 20.1955 20.1766 19.959C20.1384 19.7207 20.0264 19.5158 19.8406 19.3442C19.6715 19.1881 19.4885 19.1087 19.2915 19.1058C19.0962 19.1011 18.8878 19.1479 18.6663 19.2462C18.4464 19.3427 18.2152 19.4683 17.9726 19.623L17.166 20.1277C16.6195 20.4699 16.102 20.6633 15.6134 20.7079C15.1266 20.7506 14.6843 20.5884 14.2866 20.2213C13.9577 19.9177 13.753 19.5635 13.6723 19.1587C13.5917 18.7539 13.6243 18.3365 13.7699 17.9065C13.9137 17.4748 14.1623 17.0676 14.5157 16.6848C14.8724 16.2983 15.255 16.0199 15.6634 15.8497C16.0735 15.6776 16.4764 15.6158 16.8721 15.6644C17.2659 15.7113 17.6195 15.8726 17.933 16.1482L17.1662 16.9788Z" fill="white"/>
<path d="M22.99 19.3188L21.9946 20.0653L19.5699 12.1728L20.6533 11.3603L27.5512 15.898L26.5558 16.6445L20.9841 12.8761L20.9355 12.9125L22.99 19.3188ZM21.3315 16.7598L24.5605 14.3381L25.1522 15.1271L21.9233 17.5488L21.3315 16.7598Z" fill="white"/>
<path d="M28.2427 15.5771L24.7443 8.64054L25.7909 8.11272L28.8349 14.1484L31.978 12.5632L32.4324 13.4641L28.2427 15.5771Z" fill="white"/>
<path d="M32.9909 13.2339L30.6486 5.82656L35.2926 4.35804L35.5969 5.32012L32.0704 6.43524L32.7841 8.69215L36.0682 7.65366L36.3713 8.61212L33.0872 9.65061L33.8043 11.9184L37.3741 10.7895L37.6784 11.7516L32.9909 13.2339Z" fill="white"/>
<path d="M49.8759 5.26263C49.8535 4.90195 49.7008 4.61575 49.4177 4.40403C49.1347 4.18979 48.771 4.07151 48.3265 4.04919C48.0082 4.03321 47.7304 4.0699 47.4929 4.15927C47.2556 4.2461 47.0682 4.37342 46.9306 4.54123C46.7957 4.70664 46.7227 4.89922 46.7117 5.11896C46.7024 5.30333 46.7374 5.46461 46.8165 5.60279C46.8982 5.74109 47.0075 5.85925 47.1444 5.95728C47.2839 6.05291 47.4342 6.13515 47.5954 6.20401C47.7566 6.27035 47.9121 6.32626 48.0617 6.37176L48.8095 6.60681C49.054 6.67985 49.3037 6.77468 49.5587 6.8913C49.8136 7.00791 50.048 7.15641 50.2618 7.3368C50.4755 7.51718 50.6443 7.73582 50.7682 7.99271C50.8945 8.24974 50.949 8.55252 50.9315 8.90107C50.9094 9.34055 50.7761 9.72507 50.5317 10.0546C50.2898 10.3843 49.9492 10.6369 49.51 10.8123C49.0732 10.9879 48.5518 11.0605 47.9456 11.03C47.3647 11.0009 46.8667 10.8835 46.4516 10.6778C46.0365 10.4721 45.7175 10.194 45.4946 9.84351C45.2718 9.49049 45.1594 9.07972 45.1576 8.61119L46.3321 8.67015C46.3408 8.95165 46.42 9.18985 46.5697 9.38474C46.7221 9.57723 46.921 9.72522 47.1665 9.8287C47.4146 9.92978 47.689 9.98787 47.9895 10.003C48.3204 10.0196 48.6173 9.98257 48.8801 9.89195C49.1456 9.79893 49.3575 9.66271 49.5159 9.48328C49.6744 9.30134 49.76 9.08408 49.7727 8.8315C49.7843 8.60166 49.728 8.4102 49.6041 8.25711C49.4826 8.10415 49.3131 7.9741 49.0957 7.86697C48.8808 7.75996 48.6362 7.66285 48.3621 7.57566L47.4578 7.27958C46.845 7.07916 46.3649 6.80565 46.0177 6.45904C45.673 6.11256 45.5143 5.66907 45.5414 5.12856C45.5638 4.68151 45.7047 4.29737 45.9639 3.97615C46.2231 3.65493 46.5644 3.41252 46.9879 3.24894C47.4115 3.08283 47.8835 3.01284 48.4038 3.03896C48.9291 3.06534 49.388 3.1808 49.7803 3.38534C50.1751 3.59001 50.4806 3.85982 50.6968 4.19478C50.913 4.52722 51.0158 4.90206 51.0049 5.31931L49.8759 5.26263Z" fill="white"/>
<path d="M51.6331 11.2094L50.4218 10.9252L54.918 4.00031L56.2364 4.30962L57.1838 12.5116L55.9725 12.2274L55.2863 5.53616L55.2272 5.5223L51.6331 11.2094ZM52.5311 8.2952L56.4605 9.21706L56.2353 10.1773L52.3058 9.2554L52.5311 8.2952Z" fill="white"/>
<path d="M57.8516 12.8257L60.9313 5.69337L62.0074 6.15803L59.3278 12.364L62.5596 13.7595L62.1596 14.6858L57.8516 12.8257Z" fill="white"/>
<path d="M62.8564 15.0602L67.0509 8.52098L71.1507 11.1507L70.6059 12L67.4927 10.0032L66.2147 11.9956L69.1139 13.8552L68.5712 14.7014L65.672 12.8417L64.3878 14.8437L67.5393 16.8652L66.9945 17.7145L62.8564 15.0602Z" fill="white"/>
<path d="M81.5831 25.8488C81.866 25.624 82.0132 25.3349 82.0248 24.9816C82.0384 24.6269 81.9272 24.261 81.691 23.8837C81.522 23.6136 81.3328 23.4068 81.1236 23.2633C80.9166 23.1184 80.7049 23.0376 80.4885 23.0209C80.2757 23.0049 80.076 23.0553 79.8895 23.1721C79.733 23.27 79.6208 23.391 79.5528 23.535C79.4862 23.6812 79.4519 23.8384 79.4498 24.0067C79.4513 24.1759 79.4699 24.3462 79.5057 24.5178C79.5436 24.688 79.5867 24.8474 79.6351 24.9962L79.8705 25.7439C79.9505 25.9862 80.0157 26.2452 80.066 26.521C80.1164 26.7968 80.1288 27.074 80.1032 27.3525C80.0777 27.6311 79.9951 27.8946 79.8553 28.1432C79.7169 28.394 79.4998 28.6119 79.204 28.7971C78.831 29.0306 78.4394 29.1414 78.0293 29.1297C77.6205 29.12 77.2184 28.9854 76.8231 28.7256C76.4291 28.468 76.0711 28.082 75.7491 27.5676C75.4405 27.0745 75.2517 26.599 75.1827 26.1409C75.1138 25.6829 75.1592 25.2621 75.3189 24.8786C75.4808 24.4939 75.7533 24.1666 76.1365 23.8969L76.7604 24.8937C76.5346 25.0619 76.3846 25.2632 76.3105 25.4976C76.2399 25.7327 76.2325 25.9805 76.2881 26.2411C76.3473 26.5024 76.4567 26.7606 76.6164 27.0157C76.7922 27.2965 76.9925 27.5187 77.2172 27.6823C77.4455 27.8467 77.6785 27.9425 77.9163 27.9697C78.1562 27.9955 78.3834 27.9414 78.5977 27.8072C78.7928 27.6851 78.9176 27.5294 78.9721 27.3401C79.028 27.1529 79.0376 26.9395 79.001 26.6999C78.9657 26.4624 78.9054 26.2063 78.8199 25.9316L78.545 25.0207C78.3586 24.4035 78.308 23.8533 78.3935 23.3702C78.4802 22.8892 78.753 22.5051 79.2117 22.218C79.5911 21.9805 79.9867 21.8761 80.3985 21.9047C80.8102 21.9334 81.2044 22.0745 81.5809 22.3281C81.9596 22.5803 82.2872 22.9272 82.5636 23.3688C82.8427 23.8146 83.0107 24.257 83.0676 24.6957C83.1258 25.1367 83.0795 25.5416 82.9285 25.9106C82.7798 26.2782 82.5312 26.577 82.1829 26.807L81.5831 25.8488Z" fill="white"/>
<path d="M77.7499 30.7895L77.2911 29.633L85.5433 29.3666L86.0428 30.6253L79.8526 36.0891L79.3937 34.9325L84.4933 30.5463L84.4709 30.4899L77.7499 30.7895ZM80.6547 29.8615L82.1432 33.6131L81.2265 33.9768L79.738 30.2252L80.6547 29.8615Z" fill="white"/>
<path d="M79.9693 36.8499L87.5834 35.307L87.8162 36.4558L81.191 37.7983L81.8902 41.2484L80.9012 41.4488L79.9693 36.8499Z" fill="white"/>
<path d="M80.972 42.1596L88.7351 41.8599L88.923 46.7269L87.9147 46.7658L87.772 43.0701L85.4067 43.1614L85.5396 46.6032L84.5351 46.642L84.4022 43.2002L82.0255 43.292L82.17 47.0332L81.1617 47.0722L80.972 42.1596Z" fill="white"/>
</svg>
