<svg width="205" height="228" viewBox="0 0 205 228" fill="none" xmlns="http://www.w3.org/2000/svg">
<path d="M23.0541 129.579L35.0162 125.081L35.7258 126.968L30.7219 128.849L31.2478 130.248L37.6646 132.123L38.4756 134.28L31.0262 132.062L26.6339 139.098L25.7659 136.79L29.5125 130.9L28.9866 129.502L23.7637 131.466L23.0541 129.579Z" fill="#767676" fill-opacity="0.28"/>
<path d="M46.167 150.062L47.4249 151.497L41.0904 163.657L39.6902 162.06L41.4124 158.755L38.161 155.047L34.6707 156.335L33.2585 154.725L46.167 150.062ZM42.2747 157.472L45.1312 152.239L39.5217 154.332L42.2747 157.472Z" fill="#767676" fill-opacity="0.28"/>
<path d="M58.3299 178.358L60.7784 173.809C60.5858 173.788 60.3371 173.756 60.0323 173.714C59.7332 173.663 59.3922 173.574 59.0094 173.45C58.6372 173.332 58.2291 173.153 57.7853 172.914C56.5068 172.226 55.7094 171.429 55.3931 170.522C55.0768 169.616 55.2542 168.54 55.9253 167.293L57.9046 163.616L59.6322 164.546L57.7553 168.033C57.3572 168.772 57.2492 169.416 57.4313 169.964C57.6135 170.511 58.1431 171.021 59.0201 171.493C59.4322 171.715 59.8751 171.892 60.349 172.025C60.8334 172.163 61.2581 172.235 61.623 172.24L64.3872 167.105L66.1306 168.043L60.0734 179.297L58.3299 178.358Z" fill="#767676" fill-opacity="0.28"/>
<path d="M86.4019 186.818L86.1356 188.579L77.4681 187.269L79.3781 174.633L87.8855 175.919L87.6191 177.681L81.1051 176.696L80.5617 180.291L86.2036 181.144L85.9534 182.799L80.3115 181.947L79.7278 185.809L86.4019 186.818Z" fill="#767676" fill-opacity="0.28"/>
<path d="M99.7433 184.084C99.5926 183.318 99.5809 182.544 99.708 181.761C99.8329 180.966 100.095 180.217 100.495 179.514C100.904 178.798 101.451 178.189 102.135 177.687C102.817 177.174 103.635 176.823 104.588 176.636C105.719 176.413 106.747 176.48 107.673 176.836C108.597 177.18 109.338 177.713 109.896 178.435L108.546 179.783C108.211 179.323 107.832 178.982 107.409 178.759C106.998 178.534 106.569 178.405 106.122 178.37C105.687 178.334 105.269 178.355 104.869 178.433C104.209 178.563 103.659 178.812 103.218 179.18C102.774 179.537 102.425 179.966 102.169 180.469C101.925 180.97 101.768 181.508 101.698 182.084C101.64 182.659 101.664 183.216 101.771 183.758C101.889 184.358 102.103 184.922 102.415 185.447C102.724 185.961 103.098 186.401 103.537 186.768C103.985 187.12 104.481 187.371 105.024 187.52C105.567 187.67 106.133 187.687 106.722 187.572C107.122 187.493 107.527 187.34 107.934 187.113C108.342 186.886 108.7 186.589 109.007 186.223C109.323 185.843 109.539 185.385 109.653 184.848L111.48 185.461C111.344 186.136 111.042 186.746 110.574 187.29C110.118 187.833 109.571 188.283 108.932 188.641C108.305 188.997 107.662 189.24 107.003 189.369C106.119 189.543 105.277 189.519 104.475 189.298C103.671 189.065 102.944 188.694 102.293 188.186C101.641 187.667 101.092 187.053 100.647 186.346C100.2 185.626 99.8985 184.872 99.7433 184.084Z" fill="#767676" fill-opacity="0.28"/>
<path d="M131.533 169.376L127.885 171.552L133.519 180.997L131.772 182.039L126.138 172.594L122.474 174.779L121.561 173.249L130.62 167.845L131.533 169.376Z" fill="#767676" fill-opacity="0.28"/>
<path d="M153.431 160.884C153.958 161.32 154.297 161.833 154.447 162.424C154.605 163.005 154.595 163.612 154.416 164.242C154.238 164.873 153.92 165.466 153.461 166.021L149.576 170.727L139.721 162.591L143.915 157.51C144.297 157.048 144.751 156.753 145.275 156.626C145.799 156.482 146.327 156.483 146.861 156.628C147.393 156.756 147.868 156.992 148.284 157.336C148.765 157.733 149.116 158.232 149.335 158.834C149.553 159.418 149.576 160.021 149.406 160.643C150.038 160.216 150.71 160.023 151.422 160.066C152.132 160.092 152.801 160.365 153.431 160.884ZM151.821 162.24C151.544 162.011 151.244 161.865 150.923 161.802C150.6 161.722 150.285 161.726 149.978 161.815C149.669 161.887 149.404 162.058 149.183 162.326L146.501 165.574L149.513 168.061L152.115 164.91C152.344 164.632 152.482 164.333 152.528 164.014C152.572 163.677 152.533 163.357 152.41 163.053C152.286 162.733 152.09 162.462 151.821 162.24ZM142.351 162.148L145.252 164.543L147.613 161.683C147.827 161.424 147.957 161.143 148.005 160.84C148.044 160.53 148.006 160.226 147.893 159.93C147.77 159.627 147.57 159.36 147.292 159.131C147.005 158.894 146.71 158.744 146.405 158.679C146.091 158.607 145.794 158.618 145.513 158.713C145.231 158.791 144.987 158.955 144.78 159.205L142.351 162.148Z" fill="#767676" fill-opacity="0.28"/>
<path d="M155.812 140.56L156.435 138.757L170.136 138.233L169.443 140.241L165.719 140.383L164.108 145.045L166.957 147.438L166.258 149.462L155.812 140.56ZM164.177 140.269L158.216 140.381L162.814 144.216L164.177 140.269Z" fill="#767676" fill-opacity="0.28"/>
<path d="M34.0199 95.9287L22.3381 90.7455L25.4261 83.7858L27.0549 84.5086L24.7846 89.6255L34.8375 94.0859L34.0199 95.9287Z" fill="#767676" fill-opacity="0.28"/>
<path d="M34.3728 67.7774L35.6521 66.3618L48.4647 71.2453L47.0405 72.821L43.558 71.4932L40.251 75.1523L41.9352 78.4698L40.499 80.059L34.3728 67.7774ZM42.1841 70.7853L36.655 68.5541L39.384 73.8834L42.1841 70.7853Z" fill="#767676" fill-opacity="0.28"/>
<path d="M56.3977 62.7985L50.3203 51.5561L55.039 49.0052C55.5457 48.7313 56.0672 48.5858 56.6036 48.5687C57.14 48.5515 57.6607 48.6316 58.1657 48.8087C58.6707 48.9859 59.1247 49.2452 59.5275 49.5867C59.9304 49.9282 60.2545 50.326 60.4999 50.7799C60.8366 51.4027 61.0165 52.0762 61.0396 52.8003C61.0676 53.5081 60.9171 54.1761 60.5882 54.804C60.2698 55.4263 59.7728 55.92 59.0972 56.2853L56.0569 57.9287L58.1712 61.8398L56.3977 62.7985ZM55.2095 56.3611L58.1389 54.7776C58.4767 54.595 58.7238 54.3454 58.8801 54.029C59.0308 53.7021 59.0891 53.3431 59.0551 52.9523C59.0317 52.5557 58.9116 52.1568 58.6948 51.7557C58.4722 51.344 58.1909 51.0254 57.8508 50.8001C57.5107 50.5747 57.1578 50.4517 56.792 50.4312C56.4311 50.3944 56.0923 50.4616 55.7756 50.6328L52.9412 52.165L55.2095 56.3611Z" fill="#767676" fill-opacity="0.28"/>
<path d="M77.7536 39.2509L79.6399 38.9638L86.4744 50.8507L84.3746 51.1703L82.5172 47.939L77.6414 48.6811L76.8473 52.316L74.7297 52.6383L77.7536 39.2509ZM81.9009 46.5216L79.0299 41.2961L77.7725 47.15L81.9009 46.5216Z" fill="#767676" fill-opacity="0.28"/>
<path d="M110.887 38.8075L108.085 51.2766L106.101 50.8306L107.336 45.3337L101.049 43.9209L99.8136 49.4178L97.8466 48.9758L100.649 36.5067L102.616 36.9487L101.443 42.1647L107.731 43.5775L108.903 38.3616L110.887 38.8075Z" fill="#767676" fill-opacity="0.28"/>
<path d="M137.156 51.4387L133.606 49.1057L127.565 58.2966L125.866 57.1795L131.906 47.9886L128.341 45.6457L129.319 44.1565L138.134 49.9495L137.156 51.4387Z" fill="#767676" fill-opacity="0.28"/>
<path d="M140.366 66.356L150.691 58.8253L151.879 60.4541L143.851 66.309L155.899 65.9659L157.013 67.4929L146.687 75.0236L145.499 73.3948L153.396 67.6354L141.522 67.9412L140.366 66.356Z" fill="#767676" fill-opacity="0.28"/>
<path d="M155.203 87.0774L161.075 88.9367C161.102 88.0635 161.378 87.3192 161.903 86.7039C162.429 86.0886 163.128 85.6708 164 85.4504C164.71 85.2713 165.387 85.2799 166.03 85.4763C166.677 85.6843 167.241 86.0556 167.722 86.59C168.216 87.1214 168.565 87.7944 168.771 88.6088L169.903 93.0941L157.512 96.2225L157.018 94.2678L161.853 93.0473L161.447 91.4417C161.43 91.3719 161.41 91.2963 161.39 91.2148C161.372 91.145 161.355 91.0752 161.337 91.0054L155.771 89.3288L155.203 87.0774ZM162.959 90.2987L163.545 92.6199L167.717 91.5668L167.144 89.298C167.032 88.8559 166.849 88.4751 166.595 88.1555C166.353 87.833 166.054 87.6052 165.699 87.4722C165.346 87.3507 164.949 87.3459 164.507 87.4575C164.065 87.5691 163.71 87.7576 163.443 88.0231C163.176 88.2886 162.998 88.6121 162.908 88.9935C162.822 89.3866 162.839 89.8217 162.959 90.2987Z" fill="#767676" fill-opacity="0.28"/>
</svg>
